<svg xmlns="http://www.w3.org/2000/svg" viewBox="0 0 512 512"><path fill="#00E676" d="M108.7 69c19 0 34.6-15.4 34.6-34.5 0-19-15.5-34.5-34.6-34.5-19 0-34.5 15.5-34.5 34.5S89.7 69 108.7 69zm295.7 320c-19 0-34.5 15.6-34.5 34.6s15.2 34.6 34.3 34.6c19 0 34.5-15.5 34.5-34.6 0-19-15.5-34.5-34.6-34.5zm-299.6 59.5c-17.5 0-31.7 14.2-31.7 31.7 0 17.6 14.4 31.8 32 31.8s31.8-14.2 31.8-31.8c0-17.5-14.2-31.7-31.8-31.7zM347 75.2L159.7 38.8c-.3 3.7-1 7.3-2 10.8L345 86c.3-3.7 1-7.4 2-10.8zM151 466c1 3.4 1.7 7 2 10.8l202.5-38.3c-1-3.5-1.7-7-2-11L151 466zm242-344.5c17.7 0 32-14.2 32-31.8 0-17.5-14.3-31.7-32-31.7-17.4 0-31.6 14.2-31.6 31.7 0 17.6 14.2 31.8 31.7 31.8zM225.8 253c0 15 12 27 26.7 27s26.7-12 26.7-27c0-14.6-12-26.6-26.7-26.6-14.8 0-26.7 12-26.7 26.7zm67.6-22c0 14.8 12 26.8 26.7 26.8 15 0 27-12 27-26.8 0-14.7-12-26.7-27-26.7-14.5 0-26.5 12-26.5 26.7zm-86 34.6c0-14.8-12-26.8-26.7-26.8-14.8 0-26.7 12-26.7 26.8 0 14.7 12 26.7 26.7 26.7 14.8 0 26.7-12 26.7-26.7zm173-129.3c-3.6-1-7-2.3-10.3-4l-39 57c3.7.8 7 2.2 10.3 4l39.2-57zM175 222.7L127 82.2c-3.4 1.3-7 2.2-10.7 2.8l48 140.5c3.5-1.4 7-2.3 10.8-2.8zM124.4 436l48.8-128c-3.7-.5-7.3-1.6-10.6-3.2l-48.7 128c3.5.7 7 1.8 10.3 3.3zM392 374l-52-104.6c-3 1.7-6.6 3-10.2 3.8l52 104.7c3.2-1.8 6.6-3 10.3-4z" class="st0"/></svg>
